<?xml version="1.0" encoding="utf-8"?>
<svg viewBox="0 0 500 500" width="500" height="500" xmlns="http://www.w3.org/2000/svg" xmlns:bx="https://boxy-svg.com">
  <path d="M 250 250 L 410 250 C 410 338.366 338.366 410 250 410 Z" style="stroke-width: 0px; paint-order: fill; stroke-opacity: 0; stroke: rgba(255, 255, 255, 0); fill: rgb(67, 149, 244);"/>
  <rect x="154.643" y="105.978" width="80" height="160" style="paint-order: stroke; stroke: rgb(15, 50, 189); stroke-width: 0px; stroke-opacity: 0; fill: rgb(67, 149, 244);" transform="matrix(-1, 0.000001, -0.000001, -1, 404.643286, 355.977819)"/>
  <path d="M -250 -330 L -90 -250 L -250 -250 L -250 -330 Z" style="stroke: rgb(0, 0, 0); fill: rgb(67, 149, 244); stroke-opacity: 0;" transform="matrix(-1, 0, 0, -1, 0, 0)" bx:shape="triangle -250 -330 160 80 0 0 1@59114f26"/>
  <line style="fill: rgb(216, 216, 216); stroke: rgb(0, 0, 0);" x1="250" y1="36" x2="250" y2="464" transform="matrix(0, 1, -1, 0, 500.000007, 0)"/>
  <path d="M 250 21 L 258 37 L 242 37 L 250 21 Z" style="stroke: rgb(0, 0, 0);" transform="matrix(0, 1, -1, 0, 492.500007, 0)" bx:shape="triangle 242 21 16 16 0.5 0 1@88b2589f"/>
  <line style="fill: rgb(216, 216, 216); stroke: rgb(0, 0, 0);" x1="330" y1="239.2" x2="330" y2="260.8"/>
  <line style="fill: rgb(216, 216, 216); stroke: rgb(0, 0, 0);" x1="170" y1="239.2" x2="170" y2="260.8"/>
  <line style="fill: rgb(216, 216, 216); stroke: rgb(0, 0, 0);" x1="90" y1="239.2" x2="90" y2="260.8"/>
  <line style="fill: rgb(216, 216, 216); stroke: rgb(0, 0, 0);" x1="410" y1="239.2" x2="410" y2="260.8"/>
  <line style="fill: rgb(216, 216, 216); stroke: rgb(0, 0, 0);" x1="250" y1="39.75" x2="250" y2="467.75"/>
  <path d="M 250 32.25 L 258 48.25 L 242 48.25 L 250 32.25 Z" style="stroke: rgb(0, 0, 0);" bx:shape="triangle 242 32.25 16 16 0.5 0 1@8f6f1938"/>
  <line style="fill: rgb(216, 216, 216); stroke: rgb(0, 0, 0);" x1="253.75" y1="162.95" x2="253.75" y2="184.55" transform="matrix(0, -1, 1, 0, 76.250001, 423.750006)"/>
  <line style="fill: rgb(216, 216, 216); stroke: rgb(0, 0, 0);" x1="253.75" y1="322.95" x2="253.75" y2="344.55" transform="matrix(0, -1, 1, 0, -83.750001, 583.750009)"/>
  <line style="fill: rgb(216, 216, 216); stroke: rgb(0, 0, 0);" x1="253.75" y1="402.95" x2="253.75" y2="424.55" transform="matrix(0, -1, 1, 0, -163.750002, 663.75001)"/>
  <line style="fill: rgb(216, 216, 216); stroke: rgb(0, 0, 0);" x1="253.75" y1="82.95" x2="253.75" y2="104.55" transform="matrix(0, -1, 1, 0, 156.250002, 343.750005)"/>
  <path d="M 461.522 219.178 L 466.614 219.178 L 469.268 223.781 L 471.839 219.178 L 476.881 219.178 L 472.227 226.424 L 477.32 234.139 L 472.125 234.139 L 469.176 229.332 L 466.216 234.139 L 461.053 234.139 L 466.216 226.342 Z" style="white-space: pre;"/>
  <path d="M 265.618 29.119 L 270.752 29.119 L 273.772 34.171 L 276.793 29.119 L 281.896 29.119 L 276.079 37.814 L 276.079 44.08 L 271.446 44.08 L 271.446 37.814 Z" style="white-space: pre;"/>
  <path d="M 317.278 234.139 L 317.278 219.178 L 324.983 219.178 Q 327.126 219.178 328.259 219.546 Q 329.391 219.913 330.085 220.908 Q 330.779 221.903 330.779 223.332 Q 330.779 224.577 330.249 225.48 Q 329.718 226.383 328.789 226.944 Q 328.197 227.302 327.167 227.536 Q 327.993 227.812 328.371 228.087 Q 328.626 228.271 329.111 228.873 Q 329.596 229.475 329.759 229.802 L 331.994 234.139 L 326.769 234.139 L 324.299 229.567 Q 323.83 228.679 323.462 228.414 Q 322.962 228.067 322.33 228.067 L 321.921 228.067 L 321.921 234.139 Z M 321.921 225.24 L 323.87 225.24 Q 324.187 225.24 325.095 225.036 Q 325.554 224.944 325.845 224.567 Q 326.136 224.189 326.136 223.699 Q 326.136 222.975 325.677 222.587 Q 325.218 222.199 323.952 222.199 L 321.921 222.199 Z M 334.519 218.923 L 336.641 218.923 L 332.886 234.384 L 330.784 234.384 Z M 349.595 234.139 L 337.125 234.139 Q 337.339 232.292 338.426 230.664 Q 339.513 229.036 342.503 226.822 Q 344.329 225.465 344.84 224.761 Q 345.35 224.056 345.35 223.424 Q 345.35 222.74 344.845 222.255 Q 344.34 221.77 343.574 221.77 Q 342.778 221.77 342.273 222.271 Q 341.768 222.771 341.594 224.036 L 337.431 223.699 Q 337.676 221.944 338.329 220.959 Q 338.982 219.974 340.171 219.449 Q 341.36 218.923 343.462 218.923 Q 345.656 218.923 346.876 219.423 Q 348.095 219.923 348.794 220.959 Q 349.493 221.995 349.493 223.281 Q 349.493 224.648 348.692 225.893 Q 347.891 227.138 345.778 228.628 Q 344.523 229.496 344.1 229.843 Q 343.676 230.19 343.105 230.751 L 349.595 230.751 Z" style="white-space: pre;"/>
  <path d="M 402.805 234.139 L 402.805 219.178 L 410.51 219.178 Q 412.653 219.178 413.786 219.546 Q 414.918 219.913 415.612 220.908 Q 416.306 221.903 416.306 223.332 Q 416.306 224.577 415.776 225.48 Q 415.245 226.383 414.316 226.944 Q 413.724 227.302 412.694 227.536 Q 413.52 227.812 413.898 228.087 Q 414.153 228.271 414.638 228.873 Q 415.123 229.475 415.286 229.802 L 417.521 234.139 L 412.296 234.139 L 409.826 229.567 Q 409.357 228.679 408.989 228.414 Q 408.489 228.067 407.857 228.067 L 407.448 228.067 L 407.448 234.139 Z M 407.448 225.24 L 409.397 225.24 Q 409.714 225.24 410.622 225.036 Q 411.081 224.944 411.372 224.567 Q 411.663 224.189 411.663 223.699 Q 411.663 222.975 411.204 222.587 Q 410.745 222.199 409.479 222.199 L 407.448 222.199 Z" style="white-space: pre;"/>
  <path d="M 266.592 178.542 L 266.592 163.581 L 274.297 163.581 Q 276.44 163.581 277.573 163.949 Q 278.705 164.316 279.399 165.311 Q 280.093 166.306 280.093 167.735 Q 280.093 168.98 279.563 169.883 Q 279.032 170.786 278.103 171.347 Q 277.511 171.705 276.481 171.939 Q 277.307 172.215 277.685 172.49 Q 277.94 172.674 278.425 173.276 Q 278.91 173.878 279.073 174.205 L 281.308 178.542 L 276.083 178.542 L 273.613 173.97 Q 273.144 173.082 272.776 172.817 Q 272.276 172.47 271.644 172.47 L 271.235 172.47 L 271.235 178.542 Z M 271.235 169.643 L 273.184 169.643 Q 273.501 169.643 274.409 169.439 Q 274.868 169.347 275.159 168.97 Q 275.45 168.592 275.45 168.102 Q 275.45 167.378 274.991 166.99 Q 274.532 166.602 273.266 166.602 L 271.235 166.602 Z M 283.833 163.326 L 285.955 163.326 L 282.2 178.787 L 280.098 178.787 Z M 298.909 178.542 L 286.439 178.542 Q 286.653 176.695 287.74 175.067 Q 288.827 173.439 291.817 171.225 Q 293.643 169.868 294.154 169.164 Q 294.664 168.459 294.664 167.827 Q 294.664 167.143 294.159 166.658 Q 293.654 166.173 292.888 166.173 Q 292.092 166.173 291.587 166.674 Q 291.082 167.174 290.908 168.439 L 286.745 168.102 Q 286.99 166.347 287.643 165.362 Q 288.296 164.377 289.485 163.852 Q 290.674 163.326 292.776 163.326 Q 294.97 163.326 296.19 163.826 Q 297.409 164.326 298.108 165.362 Q 298.807 166.398 298.807 167.684 Q 298.807 169.051 298.006 170.296 Q 297.205 171.541 295.092 173.031 Q 293.837 173.899 293.414 174.246 Q 292.99 174.593 292.419 175.154 L 298.909 175.154 Z" style="white-space: pre;"/>
  <path d="M 266.592 99.139 L 266.592 84.178 L 274.297 84.178 Q 276.44 84.178 277.573 84.546 Q 278.705 84.913 279.399 85.908 Q 280.093 86.903 280.093 88.332 Q 280.093 89.577 279.563 90.48 Q 279.032 91.383 278.103 91.944 Q 277.511 92.302 276.481 92.536 Q 277.307 92.812 277.685 93.087 Q 277.94 93.271 278.425 93.873 Q 278.91 94.475 279.073 94.802 L 281.308 99.139 L 276.083 99.139 L 273.613 94.567 Q 273.144 93.679 272.776 93.414 Q 272.276 93.067 271.644 93.067 L 271.235 93.067 L 271.235 99.139 Z M 271.235 90.24 L 273.184 90.24 Q 273.501 90.24 274.409 90.036 Q 274.868 89.944 275.159 89.567 Q 275.45 89.189 275.45 88.699 Q 275.45 87.975 274.991 87.587 Q 274.532 87.199 273.266 87.199 L 271.235 87.199 Z" style="white-space: pre;"/>
  <path d="M 154.549 227.077 L 160.591 227.077 L 160.591 230.292 L 154.549 230.292 Z M 162.632 234.139 L 162.632 219.178 L 170.337 219.178 Q 172.48 219.178 173.613 219.546 Q 174.745 219.913 175.439 220.908 Q 176.133 221.903 176.133 223.332 Q 176.133 224.577 175.603 225.48 Q 175.072 226.383 174.143 226.944 Q 173.551 227.302 172.521 227.536 Q 173.347 227.812 173.725 228.087 Q 173.98 228.271 174.465 228.873 Q 174.95 229.475 175.113 229.802 L 177.348 234.139 L 172.123 234.139 L 169.653 229.567 Q 169.184 228.679 168.816 228.414 Q 168.316 228.067 167.683 228.067 L 167.275 228.067 L 167.275 234.139 Z M 167.275 225.24 L 169.224 225.24 Q 169.541 225.24 170.449 225.036 Q 170.908 224.944 171.199 224.567 Q 171.49 224.189 171.49 223.699 Q 171.49 222.975 171.031 222.587 Q 170.572 222.199 169.306 222.199 L 167.275 222.199 Z M 179.873 218.923 L 181.995 218.923 L 178.24 234.384 L 176.138 234.384 Z M 194.962 234.139 L 182.491 234.139 Q 182.705 232.292 183.792 230.664 Q 184.879 229.036 187.869 226.822 Q 189.696 225.465 190.206 224.761 Q 190.716 224.056 190.716 223.424 Q 190.716 222.74 190.211 222.255 Q 189.706 221.77 188.941 221.77 Q 188.145 221.77 187.64 222.271 Q 187.134 222.771 186.961 224.036 L 182.797 223.699 Q 183.042 221.944 183.695 220.959 Q 184.348 219.974 185.537 219.449 Q 186.726 218.923 188.828 218.923 Q 191.023 218.923 192.242 219.423 Q 193.462 219.923 194.161 220.959 Q 194.86 221.995 194.86 223.281 Q 194.86 224.648 194.059 225.893 Q 193.257 227.138 191.145 228.628 Q 189.89 229.496 189.466 229.843 Q 189.043 230.19 188.471 230.751 L 194.962 230.751 Z" style="white-space: pre;"/>
  <path d="M 82.459 227.077 L 88.501 227.077 L 88.501 230.292 L 82.459 230.292 Z M 90.542 234.139 L 90.542 219.178 L 98.247 219.178 Q 100.39 219.178 101.523 219.546 Q 102.655 219.913 103.349 220.908 Q 104.043 221.903 104.043 223.332 Q 104.043 224.577 103.513 225.48 Q 102.982 226.383 102.053 226.944 Q 101.461 227.302 100.431 227.536 Q 101.257 227.812 101.635 228.087 Q 101.89 228.271 102.375 228.873 Q 102.86 229.475 103.023 229.802 L 105.258 234.139 L 100.033 234.139 L 97.563 229.567 Q 97.094 228.679 96.726 228.414 Q 96.226 228.067 95.594 228.067 L 95.185 228.067 L 95.185 234.139 Z M 95.185 225.24 L 97.134 225.24 Q 97.451 225.24 98.359 225.036 Q 98.818 224.944 99.109 224.567 Q 99.4 224.189 99.4 223.699 Q 99.4 222.975 98.941 222.587 Q 98.482 222.199 97.216 222.199 L 95.185 222.199 Z" style="white-space: pre;"/>
  <path d="M 265.459 411.388 L 271.501 411.388 L 271.501 414.603 L 265.459 414.603 Z M 273.542 418.45 L 273.542 403.489 L 281.247 403.489 Q 283.39 403.489 284.523 403.857 Q 285.655 404.224 286.349 405.219 Q 287.043 406.214 287.043 407.643 Q 287.043 408.888 286.513 409.791 Q 285.982 410.694 285.053 411.255 Q 284.461 411.613 283.431 411.847 Q 284.257 412.123 284.635 412.398 Q 284.89 412.582 285.375 413.184 Q 285.86 413.786 286.023 414.113 L 288.258 418.45 L 283.033 418.45 L 280.563 413.878 Q 280.094 412.99 279.726 412.725 Q 279.226 412.378 278.594 412.378 L 278.185 412.378 L 278.185 418.45 Z M 278.185 409.551 L 280.134 409.551 Q 280.451 409.551 281.359 409.347 Q 281.818 409.255 282.109 408.878 Q 282.4 408.5 282.4 408.01 Q 282.4 407.286 281.941 406.898 Q 281.482 406.51 280.216 406.51 L 278.185 406.51 Z" style="white-space: pre;"/>
  <path d="M 265.459 330.048 L 271.501 330.048 L 271.501 333.263 L 265.459 333.263 Z M 273.542 337.11 L 273.542 322.149 L 281.247 322.149 Q 283.39 322.149 284.523 322.517 Q 285.655 322.884 286.349 323.879 Q 287.043 324.874 287.043 326.303 Q 287.043 327.548 286.513 328.451 Q 285.982 329.354 285.053 329.915 Q 284.461 330.273 283.431 330.507 Q 284.257 330.783 284.635 331.058 Q 284.89 331.242 285.375 331.844 Q 285.86 332.446 286.023 332.773 L 288.258 337.11 L 283.033 337.11 L 280.563 332.538 Q 280.094 331.65 279.726 331.385 Q 279.226 331.038 278.594 331.038 L 278.185 331.038 L 278.185 337.11 Z M 278.185 328.211 L 280.134 328.211 Q 280.451 328.211 281.359 328.007 Q 281.818 327.915 282.109 327.538 Q 282.4 327.16 282.4 326.67 Q 282.4 325.946 281.941 325.558 Q 281.482 325.17 280.216 325.17 L 278.185 325.17 Z M 290.783 321.894 L 292.905 321.894 L 289.15 337.355 L 287.048 337.355 Z M 305.872 337.11 L 293.401 337.11 Q 293.615 335.263 294.702 333.635 Q 295.789 332.007 298.779 329.793 Q 300.606 328.436 301.116 327.732 Q 301.626 327.027 301.626 326.395 Q 301.626 325.711 301.121 325.226 Q 300.616 324.741 299.851 324.741 Q 299.055 324.741 298.55 325.241 Q 298.044 325.742 297.871 327.007 L 293.707 326.67 Q 293.952 324.915 294.605 323.93 Q 295.258 322.945 296.447 322.42 Q 297.636 321.894 299.738 321.894 Q 301.933 321.894 303.152 322.394 Q 304.372 322.894 305.071 323.93 Q 305.77 324.966 305.77 326.252 Q 305.77 327.619 304.969 328.864 Q 304.167 330.109 302.055 331.599 Q 300.8 332.467 300.376 332.814 Q 299.953 333.161 299.381 333.722 L 305.872 333.722 Z" style="white-space: pre;"/>
</svg>